<svg width="142" height="32" viewBox="0 0 142 32" fill="none" xmlns="http://www.w3.org/2000/svg">
<path d="M14.403 0.00250948C13.2708 -0.0548799 12.3404 0.879746 12.3975 2.01699C12.4465 2.99144 13.2347 3.78201 14.2036 3.8312C15.3357 3.88859 16.2662 2.95396 16.209 1.81672C16.1601 0.843439 15.373 0.0517003 14.403 0.00250948ZM18.6039 2.42926C17.4718 2.37187 16.5413 3.3065 16.5985 4.44374C16.6474 5.41819 17.4356 6.20876 18.4045 6.25795C19.5367 6.31534 20.4671 5.38071 20.41 4.24347C20.361 3.27019 19.5728 2.47845 18.6039 2.42926ZM22.8037 4.85484C21.6716 4.79745 20.7411 5.7309 20.7983 6.86932C20.8472 7.84377 21.6354 8.63434 22.6043 8.68353C23.7365 8.74092 24.6669 7.80746 24.6098 6.66904C24.562 5.69577 23.7738 4.9052 22.8037 4.85484ZM26.8064 11.1103C27.9386 11.1677 28.869 10.2342 28.8119 9.09579C28.7629 8.12134 27.9747 7.33078 27.0058 7.28159C25.8737 7.2242 24.9432 8.15765 25.0004 9.29607C25.0482 10.2693 25.8364 11.0611 26.8064 11.1103ZM14.403 4.85484C13.2708 4.79745 12.3404 5.7309 12.3975 6.86932C12.4465 7.84377 13.2347 8.63434 14.2036 8.68353C15.3357 8.74092 16.2662 7.80746 16.209 6.66904C16.1612 5.69577 15.373 4.9052 14.403 4.85484ZM18.6039 7.28159C17.4718 7.2242 16.5413 8.15765 16.5985 9.29607C16.6474 10.2705 17.4356 11.0611 18.4045 11.1103C19.5367 11.1677 20.4671 10.2342 20.41 9.09579C20.361 8.12252 19.5728 7.33078 18.6039 7.28159ZM22.8037 9.70834C21.6716 9.65095 20.7411 10.5856 20.7983 11.7228C20.8472 12.6973 21.6354 13.4878 22.6043 13.537C23.7365 13.5944 24.6669 12.6598 24.6098 11.5225C24.562 10.5481 23.7738 9.75753 22.8037 9.70834ZM27.0047 12.1339C25.8725 12.0765 24.9421 13.0112 24.9992 14.1484C25.0482 15.1228 25.8364 15.9134 26.8053 15.9626C27.9374 16.02 28.8679 15.0854 28.8107 13.9481C28.7618 12.9748 27.9736 12.1831 27.0047 12.1339ZM14.403 9.70834C13.2708 9.65095 12.3404 10.5856 12.3975 11.7228C12.4465 12.6973 13.2347 13.4878 14.2036 13.537C15.3357 13.5944 16.2662 12.6598 16.209 11.5225C16.1601 10.5481 15.373 9.75753 14.403 9.70834ZM18.6039 12.1339C17.4718 12.0765 16.5413 13.0112 16.5985 14.1484C16.6474 15.1228 17.4356 15.9134 18.4045 15.9626C19.5367 16.02 20.4671 15.0854 20.41 13.9481C20.361 12.9748 19.5728 12.1831 18.6039 12.1339ZM22.8037 14.5607C21.6716 14.5033 20.7411 15.4379 20.7983 16.5751C20.8472 17.5496 21.6354 18.3402 22.6043 18.3894C23.7365 18.4467 24.6669 17.5121 24.6098 16.3749C24.562 15.4016 23.7738 14.6099 22.8037 14.5607ZM27.0047 16.9862C25.8725 16.9289 24.9421 17.8635 24.9992 19.0007C25.0482 19.9752 25.8364 20.7657 26.8053 20.8149C27.9374 20.8723 28.8679 19.9377 28.8107 18.8004C28.7618 17.8272 27.9736 17.0366 27.0047 16.9862ZM14.403 14.5607C13.2708 14.5033 12.3404 15.4379 12.3975 16.5751C12.4465 17.5496 13.2347 18.3402 14.2036 18.3894C15.3357 18.4467 16.2662 17.5121 16.209 16.3749C16.1601 15.4016 15.373 14.6099 14.403 14.5607ZM18.6039 16.9862C17.4718 16.9289 16.5413 17.8635 16.5985 19.0007C16.6474 19.9752 17.4356 20.7657 18.4045 20.8149C19.5367 20.8723 20.4671 19.9377 20.41 18.8004C20.361 17.8272 19.5728 17.0366 18.6039 16.9862ZM22.8037 19.413C21.6716 19.3556 20.7411 20.2902 20.7983 21.4275C20.8472 22.4019 21.6354 23.1925 22.6043 23.2417C23.7365 23.2991 24.6669 22.3644 24.6098 21.2272C24.5608 20.2539 23.7738 19.4622 22.8037 19.413ZM27.0047 21.8397C25.8725 21.7824 24.9421 22.7158 24.9992 23.8542C25.0482 24.8287 25.8364 25.6192 26.8053 25.6684C27.9374 25.7258 28.8679 24.7924 28.8107 23.6539C28.7618 22.6807 27.9747 21.8889 27.0047 21.8397Z" fill="#FF6633"/>
<path d="M18.5048 27.3214C18.3544 27.3214 18.211 27.3495 18.0781 27.3987C17.965 27.4397 17.8484 27.469 17.7283 27.4772C17.7038 27.4784 17.6805 27.4795 17.6619 27.4795C16.7979 27.4795 16.0482 26.9923 15.6681 26.2767L15.6622 26.265C15.6109 26.1678 15.5771 26.0624 15.5585 25.9534C15.4524 25.3526 14.9347 24.8947 14.3051 24.8947C14.1582 24.8947 14.0171 24.9216 13.8865 24.9685C13.7699 25.0106 13.6486 25.0411 13.525 25.0504C13.5006 25.0528 13.4784 25.0528 13.4586 25.0528C12.5736 25.0528 11.8192 24.5597 11.4496 23.8183L11.4485 23.8172C11.4053 23.7293 11.375 23.6356 11.3587 23.5384C11.2561 22.9317 10.7361 22.4691 10.1029 22.4691C9.9572 22.4691 9.81845 22.496 9.68786 22.5417C9.58409 22.578 9.47682 22.6026 9.36722 22.6096C9.32991 22.612 9.29377 22.6131 9.26578 22.6131C8.32485 22.6131 7.51451 21.9327 7.17522 21.1117L7.12858 20.9816C7.07728 20.7978 6.9875 20.6303 6.86624 20.4897C6.77179 20.3796 6.68201 20.2672 6.6039 20.1454C6.53161 20.0318 6.45232 19.903 6.41501 19.821C6.28093 19.5247 6.17249 19.2014 6.17249 18.9016C6.17249 18.5397 6.25761 18.1977 6.40918 17.8943C6.41851 17.8756 6.43017 17.8522 6.44416 17.8276C6.52811 17.673 6.64121 17.5359 6.77063 17.4165C7.03647 17.1694 7.19737 16.811 7.17988 16.4151C7.14957 15.7534 6.61206 15.2169 5.95329 15.1912C5.2234 15.1631 4.62293 15.7487 4.62293 16.4748C4.62293 16.8473 4.7815 17.1822 5.03335 17.4177C5.17559 17.55 5.30152 17.6999 5.3948 17.8709C5.41228 17.9025 5.42744 17.9318 5.4391 17.9576C5.57086 18.2445 5.64548 18.5643 5.64548 18.9016C5.64548 19.2307 5.62099 19.8421 5.15111 20.2883C4.83747 20.5858 4.58329 20.9664 4.62759 21.4443C4.67773 21.9936 5.07999 22.4492 5.614 22.578C5.87517 22.6413 6.12002 22.6143 6.33806 22.5312C6.45115 22.4878 6.57008 22.4609 6.69134 22.4562C6.71466 22.455 6.73448 22.455 6.75081 22.455C7.60662 22.455 8.35983 22.9141 8.74343 23.6157L8.7446 23.6169C8.7924 23.7035 8.82155 23.7996 8.83321 23.8991C8.90434 24.541 9.44417 25.0399 10.1018 25.0399C10.2545 25.0399 10.3991 25.0106 10.5343 24.9603C10.6428 24.9204 10.7547 24.8923 10.8701 24.8853C10.9016 24.883 10.9308 24.8818 10.9518 24.8818C11.7726 24.8818 12.4932 25.328 12.8896 25.9874C12.8919 25.9921 12.8954 25.9968 12.8989 26.0026C12.9712 26.128 13.0237 26.265 13.0493 26.409C13.1554 27.0099 13.6743 27.4678 14.3039 27.4678C14.4601 27.4678 14.6082 27.4374 14.7446 27.3847C14.8717 27.3355 15.007 27.312 15.1434 27.3097C15.1504 27.3097 15.1562 27.3097 15.162 27.3097C15.9736 27.3097 16.6731 27.7302 17.0684 28.3732C17.0719 28.379 17.0754 28.3849 17.0789 28.3907C17.164 28.5348 17.2223 28.6941 17.2549 28.8592C17.3739 29.4671 17.9149 29.9227 18.5608 29.8946C19.2196 29.8665 19.7559 29.3265 19.7827 28.6636C19.8119 27.9258 19.2289 27.3214 18.5048 27.3214ZM5.90315 12.9073C6.60973 12.9073 7.18221 12.3323 7.18221 11.6225C7.18221 10.9127 6.60973 10.3377 5.90315 10.3377C5.19658 10.3377 4.6241 10.9127 4.6241 11.6225C4.6241 12.3323 5.19658 12.9073 5.90315 12.9073ZM5.90315 8.05499C6.60973 8.05499 7.18221 7.47992 7.18221 6.77017C7.18221 6.06042 6.60973 5.48535 5.90315 5.48535C5.19658 5.48535 4.6241 6.06042 4.6241 6.77017C4.6241 7.47992 5.19658 8.05499 5.90315 8.05499Z" fill="#FF9900"/>
<path d="M22.8737 24.5876C22.6242 24.5619 22.3863 24.5946 22.1695 24.6719C22.0645 24.7094 21.9573 24.7446 21.8488 24.7692C21.7404 24.7938 21.6145 24.8172 21.5235 24.8172C20.9592 24.8172 20.4707 24.4928 20.2316 24.0196C20.1955 23.9493 20.1582 23.8287 20.1302 23.7268C20.1081 23.6471 20.0882 23.5663 20.0742 23.4843C19.9472 22.7289 19.293 22.1527 18.5049 22.1527C18.288 22.1527 18.0828 22.1972 17.8951 22.2757C17.8636 22.2885 17.8321 22.3026 17.7995 22.3143C17.6502 22.367 17.4893 22.3986 17.3226 22.3986C16.7291 22.3986 16.2196 22.0402 15.9957 21.5272C15.9339 21.3855 15.8768 21.0705 15.8768 21.0705C15.7544 20.308 15.0979 19.7259 14.3051 19.7259C14.1127 19.7259 13.9285 19.7622 13.7571 19.8255C13.7571 19.8255 13.3502 19.9637 13.1263 19.9637C12.5118 19.9637 11.9883 19.5795 11.7773 19.0373C11.7248 18.9026 11.6688 18.598 11.6688 18.598C11.5989 18.2326 11.4053 17.9117 11.1337 17.681C11.0567 17.6154 10.9833 17.5475 10.9156 17.4713C10.8398 17.387 10.7512 17.2793 10.7046 17.2008C10.581 16.9876 10.511 16.7393 10.511 16.4746C10.511 16.1654 10.6066 15.8785 10.771 15.6431C10.806 15.5915 10.8667 15.5236 10.9226 15.4651C10.9868 15.3971 11.0567 15.3339 11.1278 15.273C11.4753 14.979 11.698 14.541 11.698 14.0479C11.698 13.5548 11.4753 13.1156 11.1267 12.8228C11.0497 12.7572 10.9739 12.6905 10.9051 12.6167C10.8783 12.5874 10.8527 12.5593 10.834 12.537C10.6323 12.2876 10.5122 11.969 10.5122 11.6223C10.5122 11.3611 10.581 11.1152 10.7011 10.9032C10.7512 10.8153 10.8527 10.6947 10.9331 10.6057C10.9937 10.5389 11.059 10.478 11.1278 10.4206C11.5009 10.1068 11.7295 9.62423 11.6945 9.09015C11.642 8.2785 10.9774 7.62848 10.1682 7.59686C9.2588 7.56055 8.51025 8.29139 8.51025 9.19673C8.51025 9.68864 8.73179 10.1278 9.08041 10.4218C9.15037 10.4816 9.21799 10.5425 9.28095 10.6104C9.34858 10.6842 9.42903 10.7767 9.47101 10.8446C9.61325 11.0695 9.69603 11.3377 9.69603 11.6235C9.69603 11.9702 9.57477 12.2887 9.37306 12.5394C9.35441 12.5616 9.32992 12.5897 9.30311 12.619C9.23315 12.6928 9.15853 12.7607 9.08041 12.8263C8.73295 13.1203 8.51025 13.5583 8.51025 14.0514C8.51025 14.5457 8.73412 14.986 9.08391 15.2788C9.15503 15.3386 9.22266 15.3995 9.28678 15.4674C9.33226 15.5154 9.37889 15.5681 9.40921 15.6079C9.58993 15.8504 9.69603 16.1514 9.69603 16.4782C9.69603 16.7803 9.60392 17.0614 9.44652 17.2945C9.40921 17.3495 9.34275 17.4245 9.28445 17.4889C9.22149 17.5568 9.15153 17.6201 9.08041 17.6798C8.7073 17.9937 8.47994 18.4751 8.51375 19.0091C8.56505 19.8161 9.22149 20.465 10.0248 20.5036C10.265 20.5153 10.4947 20.4732 10.7023 20.3888C10.8387 20.3326 10.9809 20.2916 11.1278 20.2729C11.1873 20.2659 11.2456 20.26 11.2899 20.26C11.7924 20.26 12.2355 20.5177 12.4955 20.9088C12.52 20.9452 12.5456 20.9955 12.5713 21.0494C12.6506 21.218 12.7042 21.3972 12.7322 21.5811C12.8523 22.3459 13.5087 22.9315 14.3039 22.9315C14.5056 22.9315 14.698 22.8929 14.8752 22.8238C14.9988 22.7758 15.1271 22.7383 15.2577 22.7195C15.3381 22.7078 15.4232 22.6985 15.485 22.6985C16.0074 22.6985 16.4644 22.976 16.7198 23.3918C16.7548 23.4492 16.7921 23.5359 16.8247 23.6202C16.876 23.7525 16.9098 23.8907 16.9343 24.0313C17.0637 24.7856 17.7155 25.3583 18.5037 25.3583C18.7042 25.3583 18.8955 25.3196 19.0727 25.2517C19.2208 25.1943 19.3758 25.1557 19.5332 25.1322C19.5892 25.124 19.644 25.1182 19.6883 25.1182C20.2678 25.1182 20.768 25.4613 20.9988 25.9556C21.0245 26.0118 21.0525 26.0973 21.0746 26.1746C21.1003 26.2648 21.1178 26.3561 21.1329 26.4475C21.2577 27.2064 21.9141 27.785 22.7046 27.785C23.6223 27.785 24.3591 27.005 24.295 26.0692C24.2414 25.2962 23.6374 24.6684 22.8737 24.5876ZM10.1041 5.94428C10.9844 5.94428 11.698 5.2275 11.698 4.34323C11.698 3.45897 10.9844 2.74219 10.1041 2.74219C9.22382 2.74219 8.51025 3.45897 8.51025 4.34323C8.51025 5.2275 9.22382 5.94428 10.1041 5.94428Z" fill="#FF6633"/>
<path d="M1.7021 19.8694C2.22678 19.8694 2.65236 19.436 2.65236 18.9008C2.65236 18.3655 2.22678 17.9322 1.7021 17.9322C1.17742 17.9322 0.751844 18.3655 0.751844 18.9008C0.751844 19.436 1.17742 19.8694 1.7021 19.8694ZM1.7021 15.0171C2.22678 15.0171 2.65236 14.5837 2.65236 14.0485C2.65236 13.5132 2.22678 13.0799 1.7021 13.0799C1.17742 13.0799 0.751844 13.5132 0.751844 14.0485C0.751844 14.5837 1.17742 15.0171 1.7021 15.0171ZM1.7021 10.1647C2.22678 10.1647 2.65236 9.73137 2.65236 9.19613C2.65236 8.66089 2.22678 8.22754 1.7021 8.22754C1.17742 8.22754 0.751844 8.66089 0.751844 9.19613C0.751844 9.73137 1.17742 10.1647 1.7021 10.1647ZM14.3038 30.0636C14.2676 30.0636 13.9738 30.0847 13.8642 30.0847C12.6586 30.0847 11.6151 29.4148 11.0916 28.4356C11.0519 28.3618 10.9622 28.1979 10.9622 28.1979C10.8106 27.8676 10.4841 27.6369 10.1028 27.6369C10.0714 27.6369 9.7787 27.6673 9.65978 27.6673C8.49498 27.6673 7.48176 27.0419 6.94192 26.1154C6.87663 26.003 6.7542 25.7571 6.7542 25.7571C6.6003 25.435 6.27849 25.2101 5.90189 25.2101C5.87507 25.2101 5.56959 25.237 5.44367 25.237C4.22524 25.237 3.17121 24.5531 2.65236 23.5552C2.62671 23.506 2.60222 23.4556 2.5824 23.4029C2.44482 23.041 2.10319 22.7834 1.69977 22.7834C1.17509 22.7834 0.749512 23.2167 0.749512 23.7519C0.749512 24.2872 1.17509 24.7205 1.69977 24.7205C1.74174 24.7205 2.04256 24.6983 2.14983 24.6983C3.25866 24.6983 4.23107 25.2652 4.78723 26.1178C4.87934 26.2595 5.03208 26.5687 5.03208 26.5687C5.18016 26.9084 5.51246 27.1461 5.90072 27.1461C5.93803 27.1461 6.23652 27.1285 6.34379 27.1285C7.52257 27.1285 8.54628 27.768 9.08029 28.7132C9.13276 28.8057 9.24003 29.0095 9.24003 29.0095C9.39044 29.341 9.71807 29.5729 10.1005 29.5729C10.1332 29.5729 10.4281 29.5518 10.5412 29.5518C11.6932 29.5518 12.6994 30.1608 13.2439 31.0697C13.3151 31.1891 13.448 31.4503 13.448 31.4503C13.6019 31.7747 13.9249 31.9996 14.3015 31.9996C14.8261 31.9996 15.2517 31.5663 15.2517 31.031C15.2541 30.497 14.8285 30.0636 14.3038 30.0636Z" fill="#FF9900"/>
<path d="M54.8116 21.157H53.8485C53.7389 21.157 53.6386 21.2214 53.5932 21.3221L52.6965 23.2921C52.6114 23.4795 52.7467 23.6915 52.9519 23.6915H53.9301C54.0409 23.6915 54.1412 23.6259 54.1866 23.5252L55.0669 21.5564C55.1509 21.3678 55.0145 21.157 54.8116 21.157ZM76.5334 9.62057C75.6939 9.31957 74.7845 9.16848 73.8062 9.16848C72.3861 9.16848 71.1035 9.48354 69.9562 10.1148C68.8101 10.7461 67.9123 11.6198 67.2629 12.7372C66.6146 13.8545 66.2905 15.1065 66.2905 16.4909C66.2905 17.8764 66.6146 19.1273 67.2629 20.2446C67.9111 21.362 68.8054 22.2369 69.9457 22.867C71.086 23.4983 72.3651 23.8133 73.7852 23.8133C74.7682 23.8133 75.6846 23.6575 76.5334 23.3483C76.6442 23.3073 76.7176 23.1996 76.7176 23.0813V22.2263C76.7176 22.0237 76.5113 21.8878 76.327 21.9686C75.5867 22.2931 74.76 22.4559 73.8459 22.4559C72.7126 22.4559 71.6819 22.1959 70.7537 21.6747C69.8256 21.1535 69.0981 20.4402 68.5734 19.536C68.0476 18.6307 67.7852 17.6164 67.7852 16.4921C67.7852 15.3677 68.0476 14.3534 68.5734 13.4481C69.0993 12.5427 69.8256 11.8306 70.7537 11.3095C71.6819 10.7883 72.7126 10.5283 73.8459 10.5283C74.7565 10.5283 75.5832 10.6911 76.327 11.0155C76.5113 11.0963 76.7176 10.9593 76.7176 10.7578V9.89112C76.7188 9.76931 76.6453 9.66156 76.5334 9.62057ZM60.7125 9.62291C60.6204 9.42146 60.421 9.29263 60.2018 9.29263H59.4288C59.2084 9.29263 59.009 9.42146 58.9181 9.62291L54.6285 19.0465C54.4583 19.4201 54.73 19.8452 55.1404 19.8452H55.833V19.8441H63.4548C63.6764 19.8441 63.8769 19.9741 63.9679 20.1779L65.465 23.5252C65.5104 23.6259 65.6095 23.6915 65.7203 23.6915H66.6799C66.8839 23.6915 67.0192 23.4795 66.9341 23.2933L60.7125 9.62291ZM62.8334 18.6108H56.8194C56.6153 18.6108 56.4801 18.4 56.5629 18.2137L59.6468 11.279C59.7156 11.1232 59.936 11.1232 60.0048 11.279L63.0899 18.2137C63.1715 18.4 63.0363 18.6108 62.8334 18.6108ZM45.3487 16.6455C44.7004 16.3913 43.8504 16.1348 42.7987 15.8737C41.9114 15.6547 41.2048 15.452 40.6802 15.267C40.1543 15.0819 39.7182 14.8137 39.3696 14.4647C39.0222 14.1145 38.8473 13.6519 38.8473 13.0756C38.8473 12.3085 39.1644 11.7979 39.7999 11.3118C40.335 10.9019 41.0941 10.6665 42.0723 10.602C42.2216 10.5927 42.3393 10.4709 42.3393 10.3221V9.5866C42.3393 9.42615 42.2041 9.29497 42.0443 9.30434C41.1279 9.35471 40.342 9.52687 39.6868 9.82085C38.8951 10.1781 38.3074 10.6536 37.9262 11.2509C37.5437 11.847 37.3525 12.3917 37.3525 13.1178C37.3525 14.0091 37.581 14.7153 38.0381 15.2365C38.4951 15.7577 39.0443 16.1454 39.6868 16.3984C40.328 16.6525 41.1885 16.916 42.267 17.1901C43.1683 17.4103 43.8714 17.6117 44.3762 17.7968C44.8811 17.9818 45.3078 18.2465 45.6553 18.5885C46.0039 18.9317 46.1777 19.3908 46.1777 19.9671C46.1777 20.7213 45.857 21.335 45.2146 21.8082C44.5721 22.2814 43.6102 22.518 42.3277 22.518C41.4135 22.518 40.5262 22.3575 39.6658 22.0342C38.9417 21.7637 38.3401 21.4217 37.8574 21.0106C37.7209 20.8935 37.5111 20.938 37.4306 21.0996L37.0972 21.759C37.0412 21.8679 37.0599 22.0038 37.1485 22.0881C37.6696 22.5835 38.3751 22.9876 39.2658 23.3003C40.2418 23.6435 41.262 23.8145 42.3277 23.8145C43.5018 23.8145 44.4917 23.64 45.2974 23.2898C46.103 22.9408 46.7 22.4664 47.0883 21.8703C47.4777 21.2741 47.6724 20.6124 47.6724 19.8851C47.6724 19.0078 47.4474 18.3121 46.9962 17.7968C46.5461 17.2838 45.9969 16.8996 45.3487 16.6455ZM79.7724 9.5866C79.7724 9.42381 79.6419 9.29263 79.4798 9.29263H78.5494C78.3873 9.29263 78.2567 9.42498 78.2567 9.5866V23.3964C78.2567 23.5592 78.3873 23.6903 78.5494 23.6903H79.4798C79.6419 23.6903 79.7724 23.558 79.7724 23.3964V19.9061L79.7736 19.905V17.9924L79.7724 17.9936V9.5866ZM56.0976 10.3268V9.57489C56.0976 9.41912 55.9717 9.29263 55.8166 9.29263H52.6487C52.4937 9.29263 52.3677 9.41912 52.3677 9.57489V10.3268C52.3677 10.4826 52.4937 10.6091 52.6487 10.6091H55.8166C55.9717 10.6091 56.0976 10.4826 56.0976 10.3268ZM50.4987 9.29263H43.9448C43.7898 9.29263 43.6638 9.41912 43.6638 9.57489V10.3268C43.6638 10.4826 43.7898 10.6091 43.9448 10.6091H49.2639C49.419 10.6091 49.5449 10.7356 49.5449 10.8913V23.4092C49.5449 23.565 49.6709 23.6903 49.8248 23.6903H50.7809C50.9359 23.6903 51.0607 23.565 51.0607 23.4092L51.0619 9.85715C51.0607 9.54561 50.8088 9.29263 50.4987 9.29263ZM98.8056 16.6455C98.1573 16.3913 97.3073 16.1348 96.2556 15.8737C95.3683 15.6547 94.6618 15.452 94.1371 15.267C93.6112 15.0819 93.1752 14.8137 92.8265 14.4647C92.4791 14.1145 92.3042 13.6519 92.3042 13.0756C92.3042 12.3085 92.6213 11.7979 93.2568 11.3118C93.7919 10.9019 94.551 10.6665 95.5292 10.602C95.6785 10.5927 95.7962 10.4709 95.7962 10.3221V9.5866C95.7962 9.42615 95.661 9.29497 95.5012 9.30434C94.5848 9.35471 93.7978 9.52687 93.1437 9.82085C92.352 10.1781 91.7643 10.6536 91.3831 11.2509C91.0006 11.847 90.8094 12.3917 90.8094 13.1178C90.8094 14.0091 91.0379 14.7153 91.495 15.2365C91.9521 15.7577 92.5012 16.1454 93.1437 16.3984C93.7849 16.6525 94.6454 16.916 95.7239 17.1901C96.6252 17.4103 97.3283 17.6117 97.8332 17.7968C98.338 17.9818 98.7648 18.2465 99.1122 18.5885C99.4608 18.9317 99.6346 19.3908 99.6346 19.9671C99.6346 20.7213 99.3139 21.335 98.6715 21.8082C98.029 22.2814 97.0671 22.518 95.7846 22.518C94.8705 22.518 93.9832 22.3575 93.1227 22.0342C92.3986 21.7637 91.797 21.4217 91.3143 21.0106C91.1779 20.8935 90.968 20.938 90.8875 21.0996L90.5541 21.759C90.4981 21.8679 90.5168 22.0038 90.6054 22.0881C91.1266 22.5835 91.832 22.9876 92.7228 23.3003C93.6987 23.6435 94.7189 23.8145 95.7846 23.8145C96.9587 23.8145 97.9486 23.64 98.7543 23.2898C99.5599 22.9408 100.157 22.4664 100.545 21.8703C100.935 21.2741 101.129 20.6124 101.129 19.8851C101.129 19.0078 100.904 18.3121 100.453 17.7968C100.003 17.2838 99.4527 16.8996 98.8056 16.6455ZM103.956 9.29263H97.4018C97.2467 9.29263 97.1208 9.41912 97.1208 9.57489V10.3268C97.1208 10.4826 97.2467 10.6091 97.4018 10.6091H102.721C102.876 10.6091 103.002 10.7356 103.002 10.8913V23.4092C103.002 23.565 103.128 23.6903 103.282 23.6903H104.238C104.393 23.6903 104.518 23.565 104.518 23.4092L104.519 9.85715C104.518 9.54561 104.266 9.29263 103.956 9.29263ZM118.345 22.778C119.213 23.2582 120.162 23.5545 121.193 23.6681C121.387 23.6892 121.555 23.5322 121.555 23.3366V22.6339C121.555 22.4641 121.428 22.3259 121.26 22.3036C120.488 22.2006 119.771 21.9663 119.112 21.595C118.198 21.0809 117.481 20.3676 116.962 19.4564C116.443 18.544 116.184 17.5262 116.184 16.4019C116.184 15.11 116.527 13.9587 117.211 12.9468C117.567 12.4209 118.012 11.9583 118.524 11.5859C119.338 10.9932 120.251 10.6348 121.26 10.5001C121.426 10.4779 121.555 10.3397 121.555 10.1699V9.46831C121.555 9.27272 121.387 9.11461 121.193 9.13686C120.162 9.25047 119.212 9.54678 118.345 10.027C117.206 10.6571 116.308 11.532 115.653 12.6493C114.997 13.7667 114.67 15.0175 114.67 16.4031C114.67 17.7874 114.997 19.0383 115.653 20.1568C116.308 21.273 117.206 22.1478 118.345 22.778ZM123.195 23.6646C124.221 23.5474 125.17 23.25 126.044 22.7674C127.197 22.1303 128.098 21.2554 128.746 20.1451C129.395 19.0348 129.719 17.7863 129.719 16.4019C129.719 15.0163 129.395 13.769 128.746 12.6587C128.098 11.5484 127.198 10.6735 126.044 10.0364C125.17 9.55381 124.221 9.25632 123.195 9.1392C123.002 9.11695 122.832 9.27506 122.832 9.47066V10.1722C122.832 10.3409 122.96 10.4791 123.126 10.5025C123.894 10.6067 124.607 10.841 125.265 11.2076C126.186 11.7217 126.91 12.435 127.435 13.3462C127.96 14.2574 128.223 15.2752 128.223 16.4007C128.223 17.5251 127.96 18.5429 127.435 19.4552C126.909 20.3664 126.186 21.0797 125.265 21.5939C124.606 21.9616 123.892 22.1959 123.126 22.3001C122.96 22.3224 122.832 22.4606 122.832 22.6304V23.3319C122.832 23.5287 123 23.6868 123.195 23.6646ZM132.115 9.29263H128.947C128.792 9.29263 128.666 9.41912 128.666 9.57489V10.3268C128.666 10.4826 128.792 10.6091 128.947 10.6091H132.115C132.27 10.6091 132.396 10.4826 132.396 10.3268V9.57489C132.396 9.41912 132.27 9.29263 132.115 9.29263ZM140.819 9.29263H134.265C133.955 9.29263 133.703 9.54561 133.703 9.85715L133.704 23.4092C133.704 23.565 133.83 23.6903 133.984 23.6903H134.94C135.095 23.6903 135.22 23.5638 135.22 23.4092V10.8913C135.22 10.7356 135.346 10.6091 135.501 10.6091H140.82C140.975 10.6091 141.101 10.4826 141.101 10.3268V9.57489C141.1 9.41912 140.974 9.29263 140.819 9.29263ZM108.651 9.20128L105.722 9.18839C105.499 9.18839 105.32 9.36876 105.32 9.59246V10.109C105.32 10.3327 105.499 10.513 105.722 10.513L108.334 10.5306C110.488 10.5306 112.342 12.1937 112.444 14.3558C112.552 16.6642 110.721 18.5698 108.447 18.5698H105.802C105.666 18.5698 105.555 18.6811 105.555 18.8181V19.611C105.555 19.748 105.666 19.8593 105.802 19.8593H108.778C111.772 19.8593 114.187 17.3681 114.08 14.3359C113.978 11.4488 111.529 9.20128 108.651 9.20128ZM84.0585 16.2098C83.8685 15.9849 83.879 15.6511 84.0818 15.438L88.207 11.1022C88.3854 10.9148 88.2536 10.6044 87.9948 10.6044H87.1646C87.0072 10.6044 86.8568 10.6676 86.7472 10.7812L81.2369 16.478C81.1355 16.5834 81.0783 16.724 81.0783 16.8715V17.8577C81.0783 18.1212 81.3955 18.2512 81.5797 18.0638L82.4751 17.1515C82.5964 17.0285 82.7958 17.0343 82.9089 17.1655L88.3819 23.4901C88.4927 23.6177 88.6524 23.6903 88.8203 23.6903H89.7262C89.9758 23.6903 90.111 23.3975 89.9501 23.2055L84.0585 16.2098Z" fill="#FAFAFB"/>
</svg>


